# xmcd
#
# Track frame offsets:
#	150
#	16455
#	32276
#	48124
#	65183
#	77834
#	93939
#	108422
#	124962
#	144282
#	160657
#	175908
#	200757
#
# Disc length: 2923 seconds
#
# Revision: 0
# Processed by: cddbd v1.5.2PL0 Copyright (c) Steve Scherf et al.
# Submitted via: audiograbber 1.83.01
#
DISCID=a80b690d
DTITLE=Ayo - Gravity at last
DYEAR=1900
DGENRE=Chillout
TTITLE0=I am not Afraid
TTITLE1=Maybe (Ayo Blues)
TTITLE2=Slow Slow (Run Run)
TTITLE3=Love and Hate
TTITLE4=Get Out of my Way
TTITLE5=Better Days
TTITLE6=Change
TTITLE7=Piece of Joy
TTITLE8=Lonley
TTITLE9=Sometimes
TTITLE10=What's This all about
TTITLE11=Mother
TTITLE12=Thank You
EXTD=
EXTT0=
EXTT1=
EXTT2=
EXTT3=
EXTT4=
EXTT5=
EXTT6=
EXTT7=
EXTT8=
EXTT9=
EXTT10=
EXTT11=
EXTT12=
PLAYORDER=
